<?xml version="1.0" standalone="no"?>
<!DOCTYPE svg PUBLIC "-//W3C//DTD SVG 20010904//EN"
 "http://www.w3.org/TR/2001/REC-SVG-20010904/DTD/svg10.dtd">
<svg version="1.0" xmlns="http://www.w3.org/2000/svg"
 width="1280.000000pt" height="1280.000000pt" viewBox="0 0 1280.000000 1280.000000"
 preserveAspectRatio="xMidYMid meet">
<metadata>
Created by potrace 1.15, written by Peter Selinger 2001-2017
</metadata>
<g transform="translate(0.000000,1280.000000) scale(0.100000,-0.100000)"
fill="#8bc34a" stroke="none">
<path d="M7506 12619 c-223 -23 -487 -121 -737 -271 -113 -68 -317 -218 -361
-264 -67 -73 -223 -686 -322 -1266 -126 -736 -212 -1648 -191 -2008 4 -63 5
-113 2 -110 -3 3 -44 70 -93 150 -356 588 -842 1272 -1319 1856 -267 326 -461
498 -690 610 -231 112 -451 132 -665 59 -396 -135 -697 -582 -797 -1184 -17
-107 -25 -478 -13 -664 l5 -79 -140 -53 c-521 -197 -877 -406 -1121 -656 -212
-219 -304 -420 -308 -669 0 -64 5 -146 13 -185 53 -267 218 -541 488 -809 174
-173 183 -178 379 -231 823 -219 1890 -389 2751 -440 l112 -7 -207 -145 c-528
-370 -1088 -814 -1587 -1259 -409 -366 -577 -580 -671 -859 -33 -98 -37 -124
-41 -235 -6 -156 10 -241 70 -365 248 -512 1050 -787 1882 -645 61 10 113 16
116 12 3 -4 34 -68 68 -142 119 -258 307 -572 446 -745 249 -310 494 -486 775
-558 127 -32 338 -30 472 6 178 47 354 137 538 275 90 67 290 260 367 354 l55
67 109 443 c230 931 317 1329 390 1797 18 113 24 139 32 120 160 -415 258
-761 304 -1064 25 -171 25 -694 0 -875 -78 -545 -262 -1132 -543 -1729 -30
-63 -52 -116 -50 -118 4 -4 1530 1118 1558 1145 15 15 16 29 7 127 -76 884
-366 1858 -758 2550 -34 61 -58 106 -53 100 5 -5 63 -89 127 -185 528 -783
843 -1131 1226 -1352 193 -111 347 -159 540 -165 165 -6 255 12 394 81 517
256 752 1071 549 1904 -14 57 -24 105 -22 106 2 1 72 40 157 86 884 476 1353
967 1413 1480 35 301 -95 617 -366 886 -125 124 -151 139 -261 153 -782 95
-1799 161 -2494 161 -167 0 -271 4 -265 9 5 5 95 57 199 116 549 308 1327 805
1583 1010 520 418 661 901 387 1327 -63 98 -218 249 -335 327 -246 164 -532
270 -875 323 -109 16 -188 21 -360 22 l-221 1 -54 170 c-167 520 -374 898
-632 1153 -117 115 -205 180 -333 243 -121 59 -240 94 -368 108 -107 12 -146
12 -261 0z"/>
</g>
</svg>
